# xmcd
#
# Track frame offsets:
#	150
#	11689
#	23956
#	41402
#	56846
#	76324
#	90869
#	118588
#	138612
#	152373
#	166463
#	184055
#	193762
#	207149
#
# Disc length: 2937 seconds
# Revision: 0
# Processed by: cddbd v1.5.2PL0 Copyright (c) Steve Scherf et al.
# Submitted via: dBpowerAMP V12.0
#
DISCID=b00b770e
DTITLE=Dewey and Leslie Brown and the Carolina Gentlemen - Under The Mountain
DYEAR=2018
DGENRE=Bluegrass
TTITLE0=No Mountain Girl
TTITLE1=Write a Letter
TTITLE2=Dry Fork Holler
TTITLE3=Those Old Mountains
TTITLE4=Sawed Off .22
TTITLE5=Ultimate Sacrifice
TTITLE6=Little Canary
TTITLE7=Pretty Polly
TTITLE8=White River Junction
TTITLE9=Darlin' Man of Mine
TTITLE10=Black Lung
TTITLE11=Bury Me on the Mountain
TTITLE12=Rock in a River
TTITLE13=Pickin' Grinnin'
EXTD=
EXTT0=
EXTT1=
EXTT2=
EXTT3=
EXTT4=
EXTT5=
EXTT6=
EXTT7=
EXTT8=
EXTT9=
EXTT10=
EXTT11=
EXTT12=
EXTT13=
PLAYORDER=
